# xmcd
#
# Track frame offsets:
#	150
#	14675
#	43455
#	64262
#	88477
#	109622
#	122570
#	145759
#	157419
#	180831
#	198886
#	221505
#	234674
#	241821
#	242267
#	242713
#	243159
#	243605
#	244051
#	244497
#	244942
#	245388
#	245834
#	246280
#	246726
#	247172
#	247618
#	248064
#	248510
#	248955
#	249401
#	249847
#	250293
#	250739
#	251185
#	251631
#	252077
#	252522
#	252968
#	253414
#	253860
#	254306
#	254752
#
# Disc length: 4287 seconds
# Revision: 0
# Processed by: cddbd v1.5.2PL0 Copyright (c) Steve Scherf et al.
# Submitted via: dBpowerAMP V12.0
#
DISCID=8710bd2b
DTITLE=Mushroomhead - XX [Eclipse Records]
DYEAR=2001
DGENRE=Nu Metal
TTITLE0=Before I Die
TTITLE1=Bwomp
TTITLE2=Solitaire/Unraveling
TTITLE3=These Filthy Hands
TTITLE4=Never Let It Go
TTITLE5=Xeroxed
TTITLE6=The Wrist
TTITLE7=Chancre Sore
TTITLE8=The New Cult King
TTITLE9=Born of Desire
TTITLE10=43
TTITLE11=Epiphany
TTITLE12=Episode 29
TTITLE13=14
TTITLE14=15
TTITLE15=16
TTITLE16=17
TTITLE17=18
TTITLE18=19
TTITLE19=20
TTITLE20=21
TTITLE21=22
TTITLE22=23
TTITLE23=24
TTITLE24=25
TTITLE25=26
TTITLE26=27
TTITLE27=28
TTITLE28=29
TTITLE29=30
TTITLE30=31
TTITLE31=32
TTITLE32=33
TTITLE33=34
TTITLE34=35
TTITLE35=36
TTITLE36=37
TTITLE37=38
TTITLE38=39
TTITLE39=40
TTITLE40=41
TTITLE41=42
TTITLE42=Bwomp (Extended Version)
EXTD=
EXTT0=
EXTT1=
EXTT2=
EXTT3=
EXTT4=
EXTT5=
EXTT6=
EXTT7=
EXTT8=
EXTT9=
EXTT10=
EXTT11=
EXTT12=
EXTT13=
EXTT14=
EXTT15=
EXTT16=
EXTT17=
EXTT18=
EXTT19=
EXTT20=
EXTT21=
EXTT22=
EXTT23=
EXTT24=
EXTT25=
EXTT26=
EXTT27=
EXTT28=
EXTT29=
EXTT30=
EXTT31=
EXTT32=
EXTT33=
EXTT34=
EXTT35=
EXTT36=
EXTT37=
EXTT38=
EXTT39=
EXTT40=
EXTT41=
EXTT42=
PLAYORDER=
